:SAMPLES-PER-SECOND 30
:FULLY-SPECIFIED
:DEGREES
1096
root  -62.9897 38.9182 -0.453259 -28.5146 -85.0056 25.4698
RightUpLeg  -21.2304 -4.86027 -1.44479
RightLeg  8.60208 4.37802 0.722149
RightFoot  8.92936 -0.510585 3.16973
RightToes  -1.74624e-010 0 -3.6325e-017
Spine  4.39028 -2.19762 -1.46846
Spine1  4.48083 -3.16701 3.67296
HEad  -15.1615 7.01339 -1.92413
LeftShoulder1  -0.966473 5.81555 -35.5854
LeftArm  2.51475 17.1161 -36.6897
LeftForeArm  28.0864 -15.7313 -6.40038
LeftHand  -0.0620791 7.38804 -1.26355
RightShoulder  -1.66398 -7.4564 35.5129
RightArm  20.7822 -14.5906 33.2745
RightForeArm  22.3391 10.0048 7.59251
RightHand  0.0829403 1.49426 1.26714
LeftUpLeg  12.5921 0.684724 -6.23026
LeftLeg  15.9901 -2.16314 -0.000301689
LeftFoot  -20.3608 0.688057 7.15702
LeftToes  2.27646e-009 -8.13696e-011 -1.44715e-011
1097
root  -64.205 38.8256 -0.378341 -11.0794 -85.3358 7.69159
RightUpLeg  -22.0191 -5.02036 -0.0275036
RightLeg  14.4263 4.82552 1.45862
RightFoot  7.57303 -0.234404 1.70776
RightToes  -1.74624e-010 0 -3.6325e-017
Spine  3.49819 -1.85611 3.03863
Spine1  5.2181 -2.17664 1.41273
HEad  -14.8296 5.16563 -2.20068
LeftShoulder1  -0.853357 5.53834 -35.7365
LeftArm  2.34709 16.6269 -37.7089
LeftForeArm  27.2031 -16.4183 -6.01461
LeftHand  -0.0721853 8.06171 -1.15169
RightShoulder  -1.7756 -7.67385 35.9835
RightArm  19.1961 -9.09825 32.9667
RightForeArm  19.9785 9.78421 7.42606
RightHand  0.0897227 1.78538 1.30116
LeftUpLeg  12.6447 -0.246974 -4.51012
LeftLeg  20.5879 -2.29041 -0.675438
LeftFoot  -20.5573 0.475806 4.29032
LeftToes  2.27646e-009 -8.13696e-011 -1.44715e-011
1098
root  -65.2963 38.7996 -0.404503 1.53603 -85.266 -4.95844
RightUpLeg  -22.3707 -3.82285 1.14095
RightLeg  18.4234 3.79179 1.21866
RightFoot  6.19128 0.16462 -0.7966
RightToes  -1.74624e-010 0 -3.6325e-017
Spine  3.20855 -1.37655 5.26587
Spine1  5.09923 -1.5221 1.58997
HEad  -13.8824 3.79897 -2.69251
LeftShoulder1  -0.799914 5.38324 -36.2868
LeftArm  4.91481 15.9654 -37.9432
LeftForeArm  25.1859 -16.9603 -6.0879
LeftHand  -0.073095 8.07462 -1.00299
RightShoulder  -1.55284 -7.29867 34.3898
RightArm  14.8986 -4.78022 34.6191
RightForeArm  19.9218 9.46819 6.49732
RightHand  0.108468 1.56547 1.66101
LeftUpLeg  10.6313 1.15902 -2.00299
LeftLeg  27.7617 -5.29243 -2.73381
LeftFoot  -18.5052 0.126168 0.0408474
LeftToes  2.27646e-009 -8.13696e-011 -1.44715e-011
1099
root  -66.2706 38.8495 -0.509543 3.55513 -83.3514 -6.96045
RightUpLeg  -22.0228 -4.19155 1.41071
RightLeg  21.1607 2.42069 0.83764
RightFoot  4.18665 0.30627 -2.01903
RightToes  -1.74624e-010 0 -3.6325e-017
Spine  3.13258 -1.59924 6.00597
Spine1  4.83337 -1.55492 1.95604
HEad  -12.8089 1.93798 -2.47616
LeftShoulder1  -0.603621 4.96237 -35.2301
LeftArm  6.65531 15.2045 -39.0449
LeftForeArm  24.0574 -17.0024 -6.32363
LeftHand  -0.0206879 6.84075 1.03191
RightShoulder  -1.44036 -7.13162 33.1694
RightArm  11.4277 -1.68014 36.4593
RightForeArm  16.2576 11.3501 5.28634
RightHand  0.0827122 2.37826 1.08633
LeftUpLeg  6.63387 2.04614 0.415016
LeftLeg  36.9252 -8.05159 -6.08135
LeftFoot  -12.6245 0.0351951 -4.79394
LeftToes  2.27646e-009 -8.13696e-011 -1.44715e-011
1100
root  -67.155 38.9331 -0.590436 6.34378 -80.6901 -10.1316
RightUpLeg  -20.562 -6.10589 1.98264
RightLeg  22.4424 1.64297 0.634838
RightFoot  1.90905 0.242227 -1.96853
RightToes  -1.74624e-010 0 -3.6325e-017
Spine  3.35889 -2.02654 7.73852
Spine1  4.75698 -1.62039 1.45691
HEad  -12.62 -0.548373 -2.04383
LeftShoulder1  -0.497665 4.71039 -35.0488
LeftArm  7.84192 13.192 -39.2911
LeftForeArm  25.1408 -16.6135 -6.70401
LeftHand  -0.0259571 5.99081 1.11706
RightShoulder  -1.31043 -6.92264 31.8289
RightArm  7.60335 0.252193 38.2555
RightForeArm  10.997 15.5475 3.95895
RightHand  -0.0159409 3.70874 -0.485849
LeftUpLeg  1.69197 1.72063 2.59154
LeftLeg  46.4337 -7.42845 -7.81618
LeftFoot  -4.0296 0.508739 -7.8547
LeftToes  2.27646e-009 -8.13696e-011 -1.44715e-011
1101
root  -67.9689 38.9848 -0.621237 8.01405 -79.0831 -11.9113
RightUpLeg  -19.5167 -7.40768 2.43837
RightLeg  23.5457 1.42764 0.697637
RightFoot  0.0287905 0.202624 -2.03702
RightToes  -1.74624e-010 0 -3.6325e-017
Spine  3.17529 -2.08998 10.5481
Spine1  5.11489 -0.935883 -0.906989
HEad  -12.9278 -2.84014 -1.66425
LeftShoulder1  -0.425733 4.55482 -34.3592
LeftArm  6.97648 11.8917 -39.8785
LeftForeArm  25.6982 -16.6085 -6.59817
LeftHand  -0.0230391 5.90903 1.48625
RightShoulder  -1.30298 -6.88589 32.0126
RightArm  5.03111 3.08839 38.3553
RightForeArm  8.22284 20.447 3.98895
RightHand  -0.0673701 4.72075 -1.05314
LeftUpLeg  -3.49641 2.1654 3.98748
LeftLeg  54.3716 -4.65305 -6.45689
LeftFoot  2.79334 0.944122 -7.7561
LeftToes  2.27646e-009 -8.13696e-011 -1.44715e-011
1102
root  -68.802 39.1738 -0.669973 6.32071 -78.452 -10.9931
RightUpLeg  -17.0618 -8.2436 2.27461
RightLeg  23.3923 1.49615 0.896931
RightFoot  -1.25614 0.206241 -2.43012
RightToes  -1.74624e-010 0 -3.6325e-017
Spine  4.10985 -1.81844 11.5985
Spine1  4.70986 -0.198699 -2.12038
HEad  -12.9943 -4.64873 -2.41832
LeftShoulder1  -0.450573 4.61364 -34.4416
LeftArm  7.17777 11.4399 -39.793
LeftForeArm  22.4088 -16.99 -6.45171
LeftHand  -0.0135512 6.80726 1.92133
RightShoulder  -1.24129 -6.75331 31.6665
RightArm  3.16406 6.10691 38.011
RightForeArm  7.44181 25.0974 4.9773
RightHand  -0.168186 5.11429 -2.16948
LeftUpLeg  -6.77432 3.54142 4.7815
LeftLeg  59.5925 -2.1767 -3.47496
LeftFoot  0.959895 0.674007 -6.28625
LeftToes  2.27646e-009 -8.13696e-011 -1.44715e-011
1103
root  -69.5629 39.3849 -0.687881 2.5894 -78.4519 -7.49255
RightUpLeg  -15.1581 -8.90953 1.51943
RightLeg  22.9526 1.87427 1.19349
RightFoot  -2.26379 0.20156 -2.73206
RightToes  -1.74624e-010 0 -3.6325e-017
Spine  4.62826 -1.50914 11.4338
Spine1  4.3926 0.314159 -2.87039
HEad  -13.5287 -5.30891 -3.64845
LeftShoulder1  -0.466775 4.66187 -34.1463
LeftArm  7.67326 12.762 -40.1144
LeftForeArm  19.0539 -18.9387 -5.43221
LeftHand  -0.0174627 6.23726 2.55818
RightShoulder  -1.08904 -6.44011 30.5538
RightArm  2.01371 9.17231 38.5651
RightForeArm  10.774 29.5095 5.82575
RightHand  -0.134692 5.25378 -1.77072
LeftUpLeg  -10.202 5.21456 4.48277
LeftLeg  62.2747 -0.606538 -0.685987
LeftFoot  -0.61383 0.397869 -4.207
LeftToes  2.27646e-009 -8.13696e-011 -1.44715e-011
1104
root  -70.2944 39.6014 -0.670464 0.42778 -78.414 -5.26654
RightUpLeg  -13.3665 -9.33795 0.925733
RightLeg  21.9697 2.17002 1.5531
RightFoot  -2.84964 0.205886 -3.02709
RightToes  -1.74624e-010 0 -3.6325e-017
Spine  4.52758 -1.19991 12.3472
Spine1  4.35 0.972631 -4.70462
HEad  -13.6395 -5.65866 -4.80305
LeftShoulder1  -0.417899 4.54243 -34.0833
LeftArm  7.88253 13.788 -39.8242
LeftForeArm  19.435 -20.7376 -4.533
LeftHand  -0.0258255 7.41251 0.734393
RightShoulder  -0.965569 -6.17093 29.631
RightArm  0.837278 11.6534 39.339
RightForeArm  13.0031 33.1294 6.60252
RightHand  -0.207201 5.73676 -2.50811
LeftUpLeg  -13.1082 6.50885 4.24665
LeftLeg  61.9226 -0.0490082 0.483066
LeftFoot  -2.26953 0.27886 -3.35289
LeftToes  2.27646e-009 -8.13696e-011 -1.44715e-011
1105
root  -71.0127 39.8474 -0.652374 -2.93141 -78.4704 -1.66016
RightUpLeg  -11.4923 -8.98182 0.0928358
RightLeg  20.41 1.98789 1.5738
RightFoot  -3.29999 0.181786 -2.90578
RightToes  -1.74624e-010 0 -3.6325e-017
Spine  4.13442 -0.820456 11.939
Spine1  4.49879 1.35553 -5.47227
HEad  -13.9232 -5.66786 -5.84702
LeftShoulder1  -0.407345 4.52202 -33.8507
LeftArm  9.74845 14.4108 -39.5383
LeftForeArm  18.6279 -21.6815 -4.29716
LeftHand  -0.0147741 6.69896 1.68906
RightShoulder  -0.877543 -5.99195 28.691
RightArm  0.449543 14.0335 40.2117
RightForeArm  14.9503 35.9137 7.23757
RightHand  -0.264998 4.80744 -3.30799
LeftUpLeg  -15.32 6.93864 3.22813
LeftLeg  58.5228 0.151046 0.814526
LeftFoot  -3.12423 0.210892 -2.67704
LeftToes  2.27646e-009 -8.13696e-011 -1.44715e-011
1106
root  -71.6664 39.9987 -0.600268 -4.86646 -78.4352 0.16571
RightUpLeg  -9.66981 -9.14426 -0.4714
RightLeg  19.4084 2.16255 1.77323
RightFoot  -3.89187 0.173497 -3.06632
RightToes  -1.74624e-010 0 -3.6325e-017
Spine  4.29155 -0.486427 12.4211
Spine1  4.2409 1.90254 -6.7614
HEad  -13.5847 -5.65456 -6.50307
LeftShoulder1  -0.379652 4.46033 -33.5499
LeftArm  9.53248 14.9991 -39.3655
LeftForeArm  20.1764 -22.018 -4.13434
LeftHand  -0.0199502 6.45672 1.59435
RightShoulder  -0.88675 -6.04378 28.3236
RightArm  0.982748 15.7638 40.3026
RightForeArm  14.5486 38.0616 7.87966
RightHand  -0.267355 5.92579 -3.06723
LeftUpLeg  -16.3309 6.76649 2.69106
LeftLeg  52.7651 -0.0719891 0.354155
LeftFoot  -5.00229 0.205546 -3.20751
LeftToes  2.27646e-009 -8.13696e-011 -1.44715e-011
1107
root  -72.319 40.2033 -0.522686 -6.94174 -78.7487 2.50836
RightUpLeg  -7.93069 -9.04823 -1.02852
RightLeg  17.6851 2.48821 1.88704
RightFoot  -4.09593 0.160358 -2.96894
RightToes  -1.74624e-010 0 -3.6325e-017
Spine  3.83462 -0.118079 12.29
Spine1  4.41833 2.29058 -7.83165
HEad  -14.0133 -5.697 -7.01708
LeftShoulder1  -0.374851 4.44946 -33.4786
LeftArm  8.77038 15.8127 -39.2638
LeftForeArm  21.2255 -22.0964 -4.05723
LeftHand  -0.0238529 5.78649 2.10979
RightShoulder  -0.821659 -5.8954 27.7495
RightArm  2.1806 17.2564 40.5707
RightForeArm  14.0553 39.6157 8.3856
RightHand  -0.287567 6.1562 -3.21086
LeftUpLeg  -16.1279 5.77319 2.05972
LeftLeg  43.7171 -0.460753 -0.061412
LeftFoot  -6.27708 0.238159 -4.50288
LeftToes  2.27646e-009 -8.13696e-011 -1.44715e-011
1108
root  -72.9067 40.3286 -0.434456 -8.16281 -79.1078 4.35608
RightUpLeg  -7.12079 -8.88923 -1.31685
RightLeg  16.7046 2.7976 1.84296
RightFoot  -4.48963 0.149847 -3.00934
RightToes  -1.74624e-010 0 -3.6325e-017
Spine  2.94568 0.26107 12.2605
Spine1  4.82371 2.6861 -8.86042
HEad  -15.065 -5.86442 -7.2945
LeftShoulder1  -0.306835 4.28591 -33.1041
LeftArm  7.77546 16.4925 -39.4784
LeftForeArm  21.615 -21.7021 -4.1242
LeftHand  -0.0233007 6.51048 1.13068
RightShoulder  -0.776951 -5.76995 27.6588
RightArm  3.42969 18.4053 40.6839
RightForeArm  13.6041 40.6402 8.73932
RightHand  -0.365002 6.4625 -3.90519
LeftUpLeg  -15.3014 3.13218 1.65215
LeftLeg  32.658 -1.37081 -0.618789
LeftFoot  -6.451 0.230239 -4.49662
LeftToes  2.27646e-009 -8.13696e-011 -1.44715e-011
1109
root  -73.4812 40.4743 -0.317206 -10.0786 -79.8304 6.05536
RightUpLeg  -5.20359 -8.75304 -1.69282
RightLeg  15.2524 3.48824 1.87092
RightFoot  -4.62924 0.151832 -3.12031
RightToes  -1.74624e-010 0 -3.6325e-017
Spine  2.48233 0.581976 11.607
Spine1  5.89514 2.99998 -9.04306
HEad  -16.1875 -5.79961 -7.7645
LeftShoulder1  -0.316352 4.30652 -33.2677
LeftArm  6.32634 16.8741 -39.6002
LeftForeArm  22.6707 -20.9045 -4.29657
LeftHand  -0.0273963 5.34126 1.68335
RightShoulder  -0.784596 -5.79775 27.5749
RightArm  5.71412 19.7657 41.0189
RightForeArm  14.1641 40.573 8.68217
RightHand  -0.236349 6.50245 -2.64538
LeftUpLeg  -12.5206 -1.89311 1.57628
LeftLeg  20.363 -2.13547 -0.508276
LeftFoot  -5.55851 0.22995 -3.69184
LeftToes  2.27646e-009 -8.13696e-011 -1.44715e-011
1110
root  -74.0227 40.5469 -0.196746 -7.63086 -80.7483 3.3064
RightUpLeg  -3.39847 -8.11108 -1.13725
RightLeg  13.9209 3.65896 1.68237
RightFoot  -4.89594 0.137896 -3.03788
RightToes  -1.74624e-010 0 -3.6325e-017
Spine  2.42411 0.574113 11.1518
Spine1  6.04332 2.84924 -8.73745
HEad  -16.1394 -4.6999 -8.25472
LeftShoulder1  -0.334523 4.3625 -32.848
LeftArm  5.22692 18.0161 -40.1291
LeftForeArm  22.957 -20.1603 -4.52918
LeftHand  -0.0210563 6.78464 1.22496
RightShoulder  -0.711215 -5.59432 27.3635
RightArm  9.08324 20.3517 41.737
RightForeArm  13.6131 39.7716 8.46266
RightHand  -0.294949 6.94902 -3.12446
LeftUpLeg  -10.3531 -5.80888 2.09834
LeftLeg  11.6271 -4.21385 -0.014916
LeftFoot  -2.10332 0.144505 -2.354
LeftToes  2.27646e-009 -8.13696e-011 -1.44715e-011
